# xmcd
#
# Track frame offsets:
#	150
#	14770
#	29321
#
# Disc length: 584 seconds
#
# Revision: 0
# Processed by: cddbd v1.5.2PL0 Copyright (c) Steve Scherf et al.
# Submitted via: audiograbber 1.83.01
#
DISCID=1e024603
DTITLE=Sebastian Siegel - Das Kribbeln fängt wieder an
DYEAR=2000
DGENRE=Volksmusik
TTITLE0=Das Kribbeln fängt wieder an
TTITLE1=Das Kribbeln fängt wieder an (Instrumental)
TTITLE2=Das Kribbeln fängt wieder an ( Karaoke)
EXTD=
EXTT0=
EXTT1=
EXTT2=
PLAYORDER=
